<svg xmlns="http://www.w3.org/2000/svg" width="undefined" height="undefined" viewBox="0 0 512 512">
    <path fill="currentColor" d="M128 204.667C145.062 136.227 187.738 102 256 102c102.4 0 115.2 77 166.4 89.833c34.138 8.56 64-4.273 89.6-38.5C494.938 221.773 452.262 256 384 256c-102.4 0-115.2-77-166.4-89.833c-34.138-8.56-64 4.273-89.6 38.5zm-128 154C17.062 290.227 59.738 256 128 256c102.4 0 115.2 77 166.4 89.833c34.138 8.56 64-4.273 89.6-38.5C366.938 375.773 324.262 410 256 410c-102.4 0-115.2-77-166.4-89.833c-34.138-8.56-64 4.273-89.6 38.5z"/>
</svg>